<svg xmlns="http://www.w3.org/2000/svg" width="119.721" height="107.799" viewBox="0 0 119.721 107.799">
  <g id="Family" transform="translate(-146.912 -198.177)">
    <circle id="Ellipse_39" data-name="Ellipse 39" cx="3" cy="3" r="3" transform="translate(258 240)" fill="#eaedf3"/>
    <ellipse id="Ellipse_40" data-name="Ellipse 40" cx="3.5" cy="3" rx="3.5" ry="3" transform="translate(200 240)" fill="#eaedf3"/>
    <circle id="Ellipse_41" data-name="Ellipse 41" cx="1.5" cy="1.5" r="1.5" transform="translate(151 243)" fill="#eaedf3" opacity="0.389"/>
    <path id="Path_957" data-name="Path 957" d="M3149.626-1543.612c-20.839,3.43-27.014,7.782,0,23.318,7.915,4.552,31.75-2.547,40.854,0,20.4,5.711,41.4,4,53.527-7.517,17.148-16.29-.355-16.2-6.769-12.878-6.17,3.2-24.721,3.155-46.758,4.766C3190.095-1535.9,3150.418-1543.743,3149.626-1543.612Z" transform="translate(-2984.696 1823.099)" fill="rgba(35,54,101,0.08)"/>
    <path id="Path_938" data-name="Path 938" d="M230.576,296.761a6.216,6.216,0,1,0-6.216-6.216A6.224,6.224,0,0,0,230.576,296.761Zm0-9.58a3.364,3.364,0,1,1-3.364,3.364A3.368,3.368,0,0,1,230.576,287.181Z" transform="translate(-24.422 -32.081)" fill="#368496"/>
    <path id="Path_939" data-name="Path 939" d="M358.189,20.6a10.3,10.3,0,1,0-10.3-10.3A10.314,10.314,0,0,0,358.189,20.6Zm0-17.752A7.449,7.449,0,1,1,350.74,10.3,7.458,7.458,0,0,1,358.189,2.853Z" transform="translate(-124.458 198.177)" fill="#368496"/>
    <path id="Path_940" data-name="Path 940" d="M346.249,129.279a1.426,1.426,0,0,0-1.426,1.426v19.517a.922.922,0,0,1-.921.921h-3.48V125.966a1.426,1.426,0,0,0-2.853,0V186.41a.922.922,0,0,1-.921.921h-3.315a.922.922,0,0,1-.921-.921V163.72a1.426,1.426,0,1,0-2.853,0V186.41a.922.922,0,0,1-.921.921h-3.315a.922.922,0,0,1-.921-.921V125.966a1.426,1.426,0,1,0-2.852,0v25.177h-3.48a.922.922,0,0,1-.921-.92V125.962a8.5,8.5,0,0,1,8.5-8.5h10.683a8.5,8.5,0,0,1,8.5,8.5,1.426,1.426,0,1,0,2.853,0,11.361,11.361,0,0,0-11.348-11.348H325.644A11.361,11.361,0,0,0,314.3,125.962v24.262A3.778,3.778,0,0,0,318.07,154h3.48V186.41a3.778,3.778,0,0,0,3.774,3.774h3.315a3.753,3.753,0,0,0,2.347-.824,3.754,3.754,0,0,0,2.348.824h3.315a3.778,3.778,0,0,0,3.774-3.774V154h3.48a3.778,3.778,0,0,0,3.774-3.774V130.705A1.426,1.426,0,0,0,346.249,129.279Z" transform="translate(-97.255 105.359)" fill="#368496"/>
    <path id="Path_941" data-name="Path 941" d="M56.283,66.452a10.3,10.3,0,1,0-10.3-10.3A10.314,10.314,0,0,0,56.283,66.452Zm0-17.751a7.449,7.449,0,1,1-7.449,7.449A7.458,7.458,0,0,1,56.283,48.7Z" transform="translate(120.035 161.048)" fill="#368496"/>
    <path id="Path_942" data-name="Path 942" d="M41.7,161.237H32.316a10.15,10.15,0,0,0-10.138,10.138v21.3a3.491,3.491,0,0,0,3.487,3.486h.043l-.987,8.986a1.426,1.426,0,0,0,1.418,1.582h2.408v17.72a3.492,3.492,0,0,0,3.487,3.487h2.911a3.465,3.465,0,0,0,2.061-.681,3.465,3.465,0,0,0,2.061.681h2.911a3.492,3.492,0,0,0,3.487-3.487v-7.876a1.426,1.426,0,1,0-2.853,0v7.876a.635.635,0,0,1-.635.635H39.069a.636.636,0,0,1-.635-.635V209.219a1.426,1.426,0,0,0-2.853,0v15.235a.635.635,0,0,1-.635.635H32.035a.635.635,0,0,1-.635-.635v-17.72H42.613v5.279a1.426,1.426,0,1,0,2.853,0v-5.279h2.408a1.426,1.426,0,0,0,1.418-1.582l-.987-8.986h.043a3.491,3.491,0,0,0,3.487-3.487v-21.3A10.15,10.15,0,0,0,41.7,161.237Zm7.286,31.441h0a.636.636,0,0,1-.635.635h-.357L45.38,169.549a1.426,1.426,0,0,0-2.836.311l3.738,34.019H27.731l3.738-34.019a1.426,1.426,0,0,0-2.836-.311l-2.611,23.763h-.357a.635.635,0,0,1-.635-.634v-21.3a7.294,7.294,0,0,1,7.286-7.286H41.7a7.294,7.294,0,0,1,7.286,7.286Z" transform="translate(139.312 67.602)" fill="#368496"/>
    <path id="Path_943" data-name="Path 943" d="M205.638,324.753a3.8,3.8,0,0,0-2.667,1.2l-5.319,5.665h-5.506l-5.32-5.665a3.823,3.823,0,0,0-5.574,5.234l6.167,6.568v18.874a3.732,3.732,0,0,0,3.727,3.727h7.5a3.731,3.731,0,0,0,3.727-3.727v-7.827a1.426,1.426,0,1,0-2.853,0v7.827a.876.876,0,0,1-.874.875h-2.393v-11.9a1.426,1.426,0,1,0-2.853,0v11.9h-2.259a.876.876,0,0,1-.875-.875V337.194a1.427,1.427,0,0,0-.386-.976l-6.554-6.979a.97.97,0,1,1,1.415-1.329l5.742,6.115a1.426,1.426,0,0,0,1.04.45h6.741a1.427,1.427,0,0,0,1.04-.45l5.742-6.115a.97.97,0,1,1,1.415,1.328l-6.554,6.979a1.425,1.425,0,0,0-.387.976v6.857a1.426,1.426,0,1,0,2.853,0v-6.292l6.168-6.568a3.823,3.823,0,0,0-2.907-6.438Z" transform="translate(11.326 -64.817)" fill="#368496"/>
  </g>
</svg>
