<svg xmlns="http://www.w3.org/2000/svg" width="113.936" height="102.334" viewBox="0 0 113.936 102.334">
  <g id="food" transform="translate(-252.991 -323.281)">
    <path id="Path_965" data-name="Path 965" d="M3153.734-1547.736c-19.349,3.854-27.569,21.566-2.487,39.024,7.349,5.115,64.8,7.625,76.058-5.316,15.922-18.3-17.073-9.521-26.635-11.76S3173.083-1551.59,3153.734-1547.736Z" transform="translate(-2882.601 1930.172)" fill="rgba(35,54,101,0.08)"/>
    <path id="Path_961" data-name="Path 961" d="M-2.216-.046c1.714,0,7.1.174,9.339,2.093S8.362,7.26,8.362,7.26a63.915,63.915,0,0,0-9.838-1.29A31.492,31.492,0,0,0-2.216-.046Z" transform="translate(302.068 360.506)" fill="#eaedf3"/>
    <path id="Path_964" data-name="Path 964" d="M10.342,0C8.628,0,3.554,2.958,1.311,4.877A3.67,3.67,0,0,0,.384,9.312s6.289-3.287,9.74-3.256C10.384,3.009,9.842,1.872,10.342,0Z" transform="matrix(0.875, -0.485, 0.485, 0.875, 312.219, 357.387)" fill="#eaedf3"/>
    <path id="Path_962" data-name="Path 962" d="M2.751.052c1.714,0,2.527,1.692,3.128,3.056s1.447,4.1,1.447,4.1A41.178,41.178,0,0,0-.306,6.329C-.566,3.281.7,1.721,2.751.052Z" transform="translate(298.448 348.143)" fill="#eaedf3"/>
    <path id="Path_963" data-name="Path 963" d="M4.575,0C2.86,0,2.048,1.692,1.447,3.056S0,7.155,0,7.155a41.177,41.177,0,0,1,7.632-.877C7.892,3.23,6.629,1.669,4.575,0Z" transform="translate(307.566 348.848) rotate(-45)" fill="#eaedf3"/>
    <path id="Path_946" data-name="Path 946" d="M97.229,55.244a21.565,21.565,0,0,0-8.765-17.262A6.6,6.6,0,0,0,84.56,36.7a6.534,6.534,0,0,0-4.6,1.89c-.225-.188-.43-.394-.663-.573a6.455,6.455,0,0,0-2.957-1.211l.684-7.526c.016-.18.023-.362.023-.543a6.013,6.013,0,0,0-6.007-6.007h-.4a6.013,6.013,0,0,0-6.007,6.007c0,.182.008.363.025.545l.688,7.559A6.644,6.644,0,0,0,62.608,38c-.278.208-.525.447-.792.666-.138-.143-.284-.276-.435-.405a9.07,9.07,0,0,0-1.6-7,9.306,9.306,0,0,0-8.1-14.728A9.273,9.273,0,0,0,45.5,10.7a9.184,9.184,0,0,0-7.793-3.474A9.3,9.3,0,0,0,20.87,5.661a9.355,9.355,0,0,0-8.681,6.991A12.471,12.471,0,0,0,4.1,24.281,12.347,12.347,0,0,0,9.535,34.537a9.27,9.27,0,0,0,2.6,10.861,8.987,8.987,0,0,0-.269,2.164,9.328,9.328,0,0,0,8.195,9.246l3.433,9.615a17.161,17.161,0,0,0-4.409,4.78L10.952,69.4a4.206,4.206,0,0,0-.947-.106,4.354,4.354,0,0,0-4.349,4.349v.615a4.3,4.3,0,0,0,.2,1.245h-.2a4.656,4.656,0,1,0,0,9.313h.2a4.3,4.3,0,0,0-.2,1.245v.615a4.354,4.354,0,0,0,4.349,4.349,4.247,4.247,0,0,0,.944-.1l8.134-1.808a17.06,17.06,0,0,0,14.51,8.12h.365a17.144,17.144,0,0,0,2.6-.2l53.222-8.187a8.77,8.77,0,0,0,2.42-16.6,21.466,21.466,0,0,0,5.033-13.733ZM77.414,40.482a19.081,19.081,0,0,1,7.4,15.1v5.7a19.162,19.162,0,0,1-2.288,9.077L70.079,68.44a30.948,30.948,0,0,1-.787-6.862v-6.3a30.9,30.9,0,0,1,.394-4.676c.38.033.759.067,1.158.067,4.425,0,7.76-2,7.76-4.656,0-1.465-1.014-2.766-2.769-3.619l.228-2.511a3.254,3.254,0,0,1,1.35.6ZM70.642,25.833h.405a2.906,2.906,0,0,1,2.9,2.9,2.482,2.482,0,0,1-.012.264L72.528,44.5l1.184.38c1.36.435,1.788,1.007,1.788,1.13,0,.386-1.651,1.552-4.656,1.552S66.188,46.4,66.188,46.01c0-.123.428-.7,1.788-1.131l1.184-.38L67.75,29c-.008-.088-.011-.177-.011-.264a2.906,2.906,0,0,1,2.9-2.9Zm-5.013,14.1.224,2.46c-1.755.854-2.769,2.154-2.769,3.619,0,1.71,1.4,3.14,3.564,3.947a34.2,34.2,0,0,0-.459,5.319v6.3a34.107,34.107,0,0,0,.6,6.356l-9.15-1.408a18.689,18.689,0,0,1-.765-5.249v-5.7a18.907,18.907,0,0,1,7.59-15.085A3.471,3.471,0,0,1,65.629,39.931ZM48.855,65.174a18.05,18.05,0,0,1-1.293-6.668V55.242a18.457,18.457,0,0,1,7.5-14.767,3.5,3.5,0,0,1,2.061-.674,3.429,3.429,0,0,1,2.432,1.009,21.987,21.987,0,0,0-5.789,14.767v5.7a21.738,21.738,0,0,0,.537,4.735ZM49,18.54l.282,1.6,1.583-.352a6.2,6.2,0,0,1,5.778,10.393l-1.068,1.088,1.068,1.088A6.17,6.17,0,0,1,58.427,36.7c0,.047-.009.093-.009.141a6.431,6.431,0,0,0-5.195,1.141,21.637,21.637,0,0,0-6.558,7.883q-.882-2.747-1.842-5.251a22.014,22.014,0,0,1,6.815-12.018l-.972-1.209-.97-1.212a24.565,24.565,0,0,0-6.772,9.786,96.445,96.445,0,0,0-6.474-12.518l-2.612,1.679A91.35,91.35,0,0,1,39,34.835,25.571,25.571,0,0,0,28.782,33.6l.309,3.089c2.334-.234,8.946-.121,12.035,3.031,1.088,2.674,2.161,5.606,3.107,8.748a26.273,26.273,0,0,0-10.64-2.458v3.1c.073,0,6.983.047,11.073,3.3a20.96,20.96,0,0,0-.208,2.831v3.264a21.178,21.178,0,0,0,.922,6.134l-8.827-1.358c-.466-.071-.936-.12-1.408-.154a6.2,6.2,0,0,1-5.782-8.462l.453-1.187-1.076-.68a6.175,6.175,0,0,1-1.872-8.665l.967-1.453-1.555-.79a9.3,9.3,0,0,1,1.645-17.245l.964-.276.144-.992a6.223,6.223,0,0,1,6.111-5.307,1.228,1.228,0,0,1,.169.02c.109.016.219.029.329.037l1.113.09.438-1.027A6.2,6.2,0,0,1,49,18.54ZM22.271,53.771H21.177A6.162,6.162,0,0,1,15.4,45.355l.455-1.187-1.076-.68A6.174,6.174,0,0,1,12.9,34.823l.967-1.453-1.555-.79a9.3,9.3,0,0,1,1.644-17.245l.964-.276.144-.992A6.226,6.226,0,0,1,21.177,8.76a1.3,1.3,0,0,1,.174.02c.106.014.211.028.32.037l1.118.093.439-1.032A6.2,6.2,0,0,1,35.033,9.228l.282,1.6,1.583-.352a5.691,5.691,0,0,1,3.393.224,9.292,9.292,0,0,0-5.452,4.278,9.355,9.355,0,0,0-8.681,6.991,12.471,12.471,0,0,0-8.085,11.63A12.347,12.347,0,0,0,23.5,43.85a9.272,9.272,0,0,0,2.6,10.863,8.975,8.975,0,0,0-.269,2.162,9.34,9.34,0,0,0,3.031,6.888,16.9,16.9,0,0,0-2.659,1.024ZM8.76,74.255v-.615a1.265,1.265,0,0,1,1.516-1.215l7.386,1.642c-.18.469-.341.945-.48,1.433H10.005A1.247,1.247,0,0,1,8.76,74.255ZM4.1,80.156A1.555,1.555,0,0,1,5.656,78.6H16.6c-.045.512-.078,1.027-.078,1.552s.033,1.04.079,1.552H5.656A1.555,1.555,0,0,1,4.1,80.156Zm6.17,7.731A1.278,1.278,0,0,1,8.76,86.672v-.615a1.247,1.247,0,0,1,1.245-1.245h7.177c.138.487.3.964.48,1.433Zm83.851-7.731a5.654,5.654,0,0,1-4.819,5.619L36.085,93.962a14,14,0,0,1-2.126.163h-.365a13.969,13.969,0,1,1,0-27.937h.365a14.163,14.163,0,0,1,2.125.161L89.3,74.536A5.656,5.656,0,0,1,94.125,80.156Zm0-21.65a18.374,18.374,0,0,1-5.294,12.817l-3.084-.475a22.263,22.263,0,0,0,2.17-9.572v-5.7A22.267,22.267,0,0,0,82.2,40.749,3.43,3.43,0,0,1,84.56,39.8a3.476,3.476,0,0,1,2.061.677,18.45,18.45,0,0,1,7.5,14.765Z" transform="translate(269.698 322.281)" fill="#368496"/>
    <path id="Path_947" data-name="Path 947" d="M21,47h3.1V62.521H21Z" transform="translate(280.74 347.677)" fill="#368496"/>
    <path id="Path_948" data-name="Path 948" d="M29,47h3.1V62.521H29Z" transform="translate(285.156 347.677)" fill="#368496"/>
    <path id="Path_949" data-name="Path 949" d="M37,47h3.1V62.521H37Z" transform="translate(289.573 347.677)" fill="#368496"/>
    <path id="Path_950" data-name="Path 950" d="M45,49h3.1v9.313H45Z" transform="translate(293.99 348.781)" fill="#368496"/>
    <path id="Path_951" data-name="Path 951" d="M53,50h3.1v6.208H53Z" transform="translate(298.406 349.333)" fill="#368496"/>
  </g>
</svg>
