<svg xmlns="http://www.w3.org/2000/svg" width="112.378" height="95.451" viewBox="0 0 112.378 95.451">
  <g id="handshake" transform="translate(-255.879 -203.994)">
    <path id="Path_952" data-name="Path 952" d="M3155.022-1547.785c-20.723,3.411-29.527,19.086-2.664,34.535,7.871,4.527,26.574-7.237,35.628-4.7,20.288,5.679,33.774,11.452,45.83,0,17.052-16.2-2.771-18.845-9.149-15.542S3175.745-1551.2,3155.022-1547.785Z" transform="translate(-2879.713 1810.801)" fill="rgba(35,54,101,0.08)"/>
    <path id="Path_937" data-name="Path 937" d="M105.494,114.619,85.855,95.069a2.08,2.08,0,0,0-2.932,0,2.057,2.057,0,0,0,0,2.919l18.173,18.09L90.471,126.655a.838.838,0,0,1-1.18,0L68.309,105.769a.829.829,0,0,1,0-1.175l7.131-7.1a2.057,2.057,0,0,0,0-2.918,2.08,2.08,0,0,0-2.932,0l-7.131,7.1a4.947,4.947,0,0,0-1.057,5.448l-2.412,2.4H45.047L42,106.5a4.945,4.945,0,0,0-1.28-4.824l-6.938-6.907a2.08,2.08,0,0,0-2.932,0,2.057,2.057,0,0,0,0,2.918l6.938,6.907a.828.828,0,0,1,0,1.175l-.577.575L16.8,126.652l-.019.02a.835.835,0,0,1-1.155-.022L5,116.074,23.423,97.741a2.057,2.057,0,0,0,0-2.918,2.08,2.08,0,0,0-2.932,0L.608,114.615a2.057,2.057,0,0,0,0,2.918L12.7,129.569a4.986,4.986,0,0,0,5.248,1.139l6.806,6.775a6.981,6.981,0,0,0-.829,3.306,7.077,7.077,0,0,0,7.085,7.053h.026a7.077,7.077,0,0,0,7.059,7.052s0,.006,0,.009a7.088,7.088,0,0,0,10.412,6.225l2.534,2.522a6.29,6.29,0,0,0,10.731-4.161,6.4,6.4,0,0,0,4.209-1.857,6.312,6.312,0,0,0,1.876-4.6s0-.007,0-.011a6.951,6.951,0,0,0,6.528-6.934,6.739,6.739,0,0,0,5.85-9.775l6.8-6.188a5,5,0,0,0,6.371-.555l12.091-12.036A2.056,2.056,0,0,0,105.494,114.619Zm-74.485,29.1a2.926,2.926,0,1,1,2.94-2.926A2.936,2.936,0,0,1,31.009,143.715Zm9.3,6.073q-.127.119-.247.245a2.937,2.937,0,1,1,.247-.245Zm6.976,7.153-.029.026c-.01.01-.019.021-.029.032A2.939,2.939,0,0,1,42.24,154.9a2.9,2.9,0,0,1,.75-1.946q.127-.119.247-.245a2.928,2.928,0,0,1,4.049,4.227ZM76.041,141.2a2.636,2.636,0,0,1-3.715,0l-4.307-4.287a2.08,2.08,0,0,0-2.932,0,2.057,2.057,0,0,0,0,2.918l4.306,4.287h0l.013.013a2.806,2.806,0,0,1-3.922,4.013l-4.147-3.907a2.08,2.08,0,0,0-2.931.08,2.057,2.057,0,0,0,.08,2.917L63,151.491a2.243,2.243,0,0,1,.045,3.225,2.27,2.27,0,0,1-3.2,0l-2.093-2.084a2.08,2.08,0,0,0-2.932,0,2.057,2.057,0,0,0,0,2.918L57,157.716a2.138,2.138,0,0,1-3.031,3.017l-2.535-2.524a6.981,6.981,0,0,0,.828-3.3,7.077,7.077,0,0,0-7.059-7.052s0-.006,0-.009a7.077,7.077,0,0,0-7.085-7.053h-.026a7.088,7.088,0,0,0-10.411-6.225L21.2,128.115l18.327-18.244,3.191,3.177a2.078,2.078,0,0,0,1.466.6h2.683L38.688,121.8a6.609,6.609,0,0,0,9.368,9.325L55,124.214l7.6.083,13.434,13.2a2.607,2.607,0,0,1,.013,3.71Zm1.5-8.025-12.628-12.4h0l-.018-.018a2.073,2.073,0,0,0-1.7-.579l-9.022-.1a2.084,2.084,0,0,0-1.489.6L45.124,128.2a2.472,2.472,0,1,1-3.5-3.488l11.114-11.064H62.768a2.078,2.078,0,0,0,1.466-.6L67,110.3l17.042,16.964Z" transform="translate(259.595 122.648)" fill="#368496"/>
    <circle id="Ellipse_32" data-name="Ellipse 32" cx="2.059" cy="2.059" r="2.059" transform="translate(348.441 237.617)" fill="#368496"/>
    <circle id="Ellipse_33" data-name="Ellipse 33" cx="2.059" cy="2.059" r="2.059" transform="translate(272.521 237.824)" fill="#368496"/>
    <circle id="Ellipse_34" data-name="Ellipse 34" cx="2.059" cy="2.059" r="2.059" transform="translate(284.692 212.121)" fill="#368496"/>
    <circle id="Ellipse_35" data-name="Ellipse 35" cx="2.059" cy="2.059" r="2.059" transform="translate(336.445 211.955)" fill="#368496"/>
    <ellipse id="Ellipse_37" data-name="Ellipse 37" cx="7.015" cy="6.773" rx="7.015" ry="6.773" transform="translate(354.227 209.445)" fill="#eaedf3"/>
    <path id="Path_953" data-name="Path 953" d="M286.215,200.814v14.423" transform="translate(26.432 4.68)" fill="#368496" stroke="#368496" stroke-linecap="round" stroke-width="3"/>
    <path id="Path_955" data-name="Path 955" d="M276.079,202.55l7.249,10.455" transform="translate(22.431 5.624)" fill="#368496" stroke="#368496" stroke-linecap="round" stroke-width="3"/>
    <path id="Path_956" data-name="Path 956" d="M283.328,202.55l-7.249,10.455" transform="translate(44.113 5.624)" fill="#368496" stroke="#368496" stroke-linecap="round" stroke-width="3"/>
  </g>
</svg>
