<svg xmlns="http://www.w3.org/2000/svg" width="136.114" height="118.052" viewBox="0 0 136.114 118.052">
  <g id="home" transform="translate(-32.678 -190.106)">
    <path id="Path_958" data-name="Path 958" d="M7.091-.5c4.285-2.942,11.223-4.175,11.223-4.175S32.352-7.383,34.2-.5s-5.869,8.518-5.869,8.518c0,1.286-9.488-4.37-15.608-3.957S1.293,9.3,1.293,8.019,2.806,2.442,7.091-.5Z" transform="translate(121.391 195.306)" fill="#eaedf3"/>
    <path id="Path_959" data-name="Path 959" d="M38.232,234.849c-.519,0-1.807,3.842-2.451,6.778s1.875,6.273-1.726,2.78S28.3,231.5,28.3,231.5s0,8.848,1.814,13.975,5.454,6.532,5.454,6.532-9.24,5.1,1.029,4.745,17.789,1.734,16.84-2.853-7.377-.362-7.209-1.891a18.2,18.2,0,0,0,6.169-3.88,11.954,11.954,0,0,0,2.634-5.815s-7.912,3.866-6.771,2.094A9.688,9.688,0,0,0,49.3,238.7a14.888,14.888,0,0,0-2-5.665,12.628,12.628,0,0,0-4.815,6.511c-1.464,4.47.94,5.74,0,5.928a12.545,12.545,0,0,0-.739-5.21C40.681,237.609,38.74,234.849,38.232,234.849Z" transform="translate(4.375 50.162)" fill="#eaedf3"/>
    <path id="Path_960" data-name="Path 960" d="M43.375,236.411c-.91,0-1.734,7-2.863,12.144s0,17.919,0,17.919-17.993,8.939,0,8.313,31.168,3.038,29.505-5-12.925-.634-12.631-3.314c0,0,6.953-2.551,10.808-6.8a20.945,20.945,0,0,0,4.614-10.188s-13.863,6.774-11.863,3.67c.922-1.431,2.244-5.017,1.822-10s-3.51-9.925-3.51-9.925a22.126,22.126,0,0,0-8.437,11.409c-2.565,7.833,1.648,10.057,0,10.387a21.981,21.981,0,0,0-1.295-9.128C47.665,241.247,44.264,236.411,43.375,236.411Z" transform="translate(95.983 32.245)" fill="#eaedf3"/>
    <path id="Path_944" data-name="Path 944" d="M114.476,104.343q0-.112,0-.222a6.99,6.99,0,0,0-6.912-7.05v-32.6l6.221-4.759a1.783,1.783,0,0,0-.017-2.833L98.929,45.812V26.575a1.745,1.745,0,0,0,1.728-1.762v-7.05A1.745,1.745,0,0,0,98.929,16H81.649a1.745,1.745,0,0,0-1.728,1.762v7.05a1.745,1.745,0,0,0,1.728,1.762v6.358l-12.8-9.544a1.7,1.7,0,0,0-2.039,0L21.88,56.875a1.783,1.783,0,0,0-.017,2.833l6.221,4.759v32.6a6.99,6.99,0,0,0-6.912,7.05q0,.11,0,.222a7.046,7.046,0,0,0-5.136,7.714,6.96,6.96,0,0,0,6.86,6.163h89.853a6.96,6.96,0,0,0,6.86-6.163A7.046,7.046,0,0,0,114.476,104.343Zm-31.1-84.818H97.2V23.05H83.377Zm1.728,15.862V26.575H95.473V43.236L84.941,35.387ZM67.826,26.995l42.022,31.322-4.023,3.078L68.842,33.961a1.7,1.7,0,0,0-2.033,0L29.827,61.394,25.8,58.317ZM19.443,111.171a3.5,3.5,0,0,1,3.4-3.525h0c.088.013.177.023.267.029a1.715,1.715,0,0,0,1.492-.7,1.791,1.791,0,0,0,.241-1.658,3.488,3.488,0,0,1,3.232-4.718v14.1H22.9A3.5,3.5,0,0,1,19.443,111.171Zm74.3,3.525H73.009V75.922H93.745Zm3.456,0V74.16A1.745,1.745,0,0,0,95.473,72.4H71.281a1.745,1.745,0,0,0-1.728,1.762V114.7H31.539V64.483L67.826,37.566l36.287,26.917V114.7Zm15.551,0h-5.184V100.6a3.489,3.489,0,0,1,3.232,4.719,1.791,1.791,0,0,0,.241,1.658,1.715,1.715,0,0,0,1.492.7c.09-.006.178-.017.267-.029h0a3.526,3.526,0,0,1-.052,7.05Z" transform="translate(31.745 189.938)" fill="#368496"/>
    <path id="Path_945" data-name="Path 945" d="M142.463,272H121.728A1.728,1.728,0,0,0,120,273.728v24.191a1.728,1.728,0,0,0,1.728,1.728h20.735a1.728,1.728,0,0,0,1.728-1.728V273.728A1.728,1.728,0,0,0,142.463,272Zm-1.728,12.1h-6.912v-8.64h6.912Zm-10.368-8.64v8.64h-6.912v-8.64Zm-6.912,12.1h6.912v8.64h-6.912Zm10.368,8.64v-8.64h6.912v8.64Z" transform="translate(-49.805 -9.245)" fill="#368496"/>
    <circle id="Ellipse_36" data-name="Ellipse 36" cx="1.728" cy="1.728" r="1.728" transform="translate(107.68 284.443) rotate(-67.5)" fill="#368496"/>
  </g>
</svg>
